<svg width="1000" height="1920" xmlns="http://www.w3.org/2000/svg">

 <g>
  <title>Layer 1</title>
  <path transform="rotate(90, 51.7224, 959)" id="svg_1" d="m-909.27728,910.27773l17.75181,16.75382c17.88528,16.59688 52.98847,50.33993 89.02597,58.57952c35.63708,8.23958 70.74028,-8.23958 106.77778,-14.63507c35.63708,-6.16007 68.97211,-34.23646 105.00961,-36.19826c35.63708,-1.96181 72.50845,21.40625 108.54595,8.9684c35.63708,-12.67326 70.74028,-29.15243 106.77778,-22.99236c35.63708,6.39549 70.74028,35.43021 106.77778,50.22222c35.63708,14.63507 70.74028,-11.36493 106.77778,-13.44444c35.63708,-2.23646 70.74028,19.83993 106.77778,7.16667c35.63708,-12.43785 70.74028,-33.62535 106.77778,-46.0632c35.63708,-12.67326 70.74028,-16.59688 106.77778,-2.07951c35.63708,14.51736 70.74028,48.26042 106.77778,62.77778c35.63708,14.51736 70.74028,10.59375 106.77778,8.35729c35.63708,-2.07951 76.04479,-50.07951 112.08229,-48c35.63708,2.23646 84.88563,34.16007 120.92313,36.39653c35.63708,2.07951 51.29042,22.07951 87.32792,11.60347c35.63708,-10.3191 70.74028,-31.5066 106.77778,-41.8257c35.63708,-10.47604 70.74028,-16.47604 106.77778,-16.75382c36.0375,-0.27778 63.6676,43.16667 80.58554,4.88889l26.19224,11.72222l0,65.00001l-17.75181,0c-17.88528,0 -52.98847,0 -89.02597,0c-35.63708,0 -70.74028,0 -106.77778,0c-35.63708,0 -70.74028,0 -106.77778,0c-35.63708,0 -70.74028,0 -106.77778,0c-35.63708,0 -70.74028,0 -106.77778,0c-35.63708,0 -70.74028,0 -106.77778,0c-35.63708,0 -70.74028,0 -106.77778,0c-35.63708,0 -70.74028,0 -106.77778,0c-35.63708,0 -70.74028,0 -106.77778,0c-35.63708,0 -70.74028,0 -106.77778,0c-35.63708,0 -70.74028,0 -106.77778,0c-35.63708,0 -70.74028,0 -106.77778,0c-35.63708,0 -70.74028,0 -106.77778,0c-35.63708,0 -70.74028,0 -106.77778,0c-35.63708,0 -70.74028,0 -106.77778,0c-35.63708,0 -70.74028,0 -106.77778,0c-35.63708,0 -70.74028,0 -106.77778,0c-35.63708,0 -70.74028,0 -89.42639,0l-17.35139,0l0,-100.44445z" fill="#579DD7"/>
 </g>
</svg>