{
    "asset" : {
        "generator" : "Khronos glTF Blender I/O v1.2.75",
        "version" : "2.0"
    },
    "scene" : 0,
    "scenes" : [
        {
            "name" : "Scene",
            "nodes" : [
                0,
                1,
                2,
                3,
                4,
                5
            ]
        }
    ],
    "nodes" : [
        {
            "mesh" : 0,
            "name" : "Text.001",
            "rotation" : [
                0.7071067690849304,
                0,
                0,
                0.7071067690849304
            ],
            "scale" : [
                0.28477832674980164,
                0.28477832674980164,
                0.28477832674980164
            ],
            "translation" : [
                2.787501096725464,
                0.38982027769088745,
                0.07573013752698898
            ]
        },
        {
            "name" : "Light",
            "rotation" : [
                0.16907575726509094,
                0.7558803558349609,
                -0.27217137813568115,
                0.570947527885437
            ],
            "translation" : [
                4.5876007080078125,
                5.947635173797607,
                -1.0560394525527954
            ]
        },
        {
            "name" : "Camera",
            "rotation" : [
                0.6905869245529175,
                -0.0018974154954776168,
                0.0004810717364307493,
                0.7232467532157898
            ],
            "translation" : [
                1.5657999515533447,
                1.1298363208770752,
                7.9942193031311035
            ]
        },
        {
            "name" : "Point",
            "translation" : [
                -2.310002565383911,
                4.526004314422607,
                2.8069918155670166
            ]
        },
        {
            "name" : "Light.001",
            "rotation" : [
                0.16907575726509094,
                0.7558803558349609,
                -0.27217137813568115,
                0.570947527885437
            ],
            "translation" : [
                4.5876007080078125,
                5.947635173797607,
                6.08608341217041
            ]
        },
        {
            "mesh" : 1,
            "name" : "Curve.003",
            "rotation" : [
                0.7071067690849304,
                0,
                0,
                0.7071067690849304
            ],
            "scale" : [
                24.792261123657227,
                24.792261123657227,
                24.792261123657227
            ]
        }
    ],
    "materials" : [
        {
            "doubleSided" : true,
            "emissiveFactor" : [
                0.05780274420976639,
                0.05780274420976639,
                0.05780274420976639
            ],
            "name" : "Material.001",
            "pbrMetallicRoughness" : {
                "baseColorFactor" : [
                    0.800000011920929,
                    0.800000011920929,
                    0.800000011920929,
                    1
                ],
                "metallicFactor" : 0,
                "roughnessFactor" : 0
            }
        }
    ],
    "meshes" : [
        {
            "name" : "Text",
            "primitives" : [
                {
                    "attributes" : {
                        "POSITION" : 0,
                        "NORMAL" : 1,
                        "TEXCOORD_0" : 2
                    },
                    "indices" : 3,
                    "material" : 0
                }
            ]
        },
        {
            "name" : "Curve.003",
            "primitives" : [
                {
                    "attributes" : {
                        "POSITION" : 4,
                        "NORMAL" : 5,
                        "TEXCOORD_0" : 6
                    },
                    "indices" : 7,
                    "material" : 0
                }
            ]
        }
    ],
    "accessors" : [
        {
            "bufferView" : 0,
            "componentType" : 5126,
            "count" : 6834,
            "max" : [
                3.88700008392334,
                0.09999999403953552,
                1.0089999437332153
            ],
            "min" : [
                0.003000000026077032,
                -0.09999999403953552,
                -0.6820000410079956
            ],
            "type" : "VEC3"
        },
        {
            "bufferView" : 1,
            "componentType" : 5126,
            "count" : 6834,
            "type" : "VEC3"
        },
        {
            "bufferView" : 2,
            "componentType" : 5126,
            "count" : 6834,
            "type" : "VEC2"
        },
        {
            "bufferView" : 3,
            "componentType" : 5123,
            "count" : 17472,
            "type" : "SCALAR"
        },
        {
            "bufferView" : 4,
            "componentType" : 5126,
            "count" : 2525,
            "max" : [
                0.10842633247375488,
                0.009999999776482582,
                -0.00010158121585845947
            ],
            "min" : [
                0.00012418627738952637,
                -0.009999999776482582,
                -0.043874356895685196
            ],
            "type" : "VEC3"
        },
        {
            "bufferView" : 5,
            "componentType" : 5126,
            "count" : 2525,
            "type" : "VEC3"
        },
        {
            "bufferView" : 6,
            "componentType" : 5126,
            "count" : 2525,
            "type" : "VEC2"
        },
        {
            "bufferView" : 7,
            "componentType" : 5123,
            "count" : 4620,
            "type" : "SCALAR"
        }
    ],
    "bufferViews" : [
        {
            "buffer" : 0,
            "byteLength" : 82008,
            "byteOffset" : 0
        },
        {
            "buffer" : 0,
            "byteLength" : 82008,
            "byteOffset" : 82008
        },
        {
            "buffer" : 0,
            "byteLength" : 54672,
            "byteOffset" : 164016
        },
        {
            "buffer" : 0,
            "byteLength" : 34944,
            "byteOffset" : 218688
        },
        {
            "buffer" : 0,
            "byteLength" : 30300,
            "byteOffset" : 253632
        },
        {
            "buffer" : 0,
            "byteLength" : 30300,
            "byteOffset" : 283932
        },
        {
            "buffer" : 0,
            "byteLength" : 20200,
            "byteOffset" : 314232
        },
        {
            "buffer" : 0,
            "byteLength" : 9240,
            "byteOffset" : 334432
        }
    ],
    "buffers" : [
        {
            "byteLength" : 343672,
            "uri" : "data:application/octet-stream;base64,"
        }
    ]
}
